solid Mesh
  facet normal 0.000000 0.000000 -1.000000
    outer loop
      vertex -11.750000 -177.779999 -7.990000
      vertex 11.750000 -177.779999 -7.990000
      vertex -11.750000 -179.779999 -7.990000
    endloop
  endfacet
  facet normal 0.000000 0.000000 -1.000000
    outer loop
      vertex -11.750000 -179.779999 -7.990000
      vertex 11.750000 -177.779999 -7.990000
      vertex 11.750000 -179.779999 -7.990000
    endloop
  endfacet
  facet normal -1.000000 -0.000000 -0.000000
    outer loop
      vertex -11.750000 -177.779999 3.010000
      vertex -11.750000 -177.779999 -7.990000
      vertex -11.750000 -179.779999 3.010000
    endloop
  endfacet
  facet normal -1.000000 0.000000 0.000000
    outer loop
      vertex -11.750000 -179.779999 3.010000
      vertex -11.750000 -177.779999 -7.990000
      vertex -11.750000 -179.779999 -7.990000
    endloop
  endfacet
  facet normal 1.000000 0.000000 -0.000000
    outer loop
      vertex 11.750000 -177.779999 -7.990000
      vertex 11.750000 -177.779999 3.010000
      vertex 11.750000 -179.779999 -7.990000
    endloop
  endfacet
  facet normal 1.000000 0.000000 0.000000
    outer loop
      vertex 11.750000 -179.779999 -7.990000
      vertex 11.750000 -177.779999 3.010000
      vertex 11.750000 -179.779999 3.010000
    endloop
  endfacet
  facet normal 0.000000 1.000000 0.000000
    outer loop
      vertex -11.750000 -177.779999 -7.990000
      vertex 11.750000 -177.779999 3.010000
      vertex 11.750000 -177.779999 -7.990000
    endloop
  endfacet
  facet normal -0.000000 1.000000 0.000000
    outer loop
      vertex -11.750000 -177.779999 3.010000
      vertex 11.750000 -177.779999 3.010000
      vertex -11.750000 -177.779999 -7.990000
    endloop
  endfacet
  facet normal 0.000000 -1.000000 -0.000000
    outer loop
      vertex 11.750000 -179.779999 3.010000
      vertex -11.750000 -179.779999 -7.990000
      vertex 11.750000 -179.779999 -7.990000
    endloop
  endfacet
  facet normal -0.000000 -1.000000 0.000000
    outer loop
      vertex 11.750000 -179.779999 3.010000
      vertex -11.750000 -179.779999 3.010000
      vertex -11.750000 -179.779999 -7.990000
    endloop
  endfacet
  facet normal 0.000000 0.000000 1.000000
    outer loop
      vertex 11.750000 -177.779999 3.010000
      vertex -11.750000 -177.779999 3.010000
      vertex 11.750000 -179.779999 3.010000
    endloop
  endfacet
  facet normal 0.000000 0.000000 1.000000
    outer loop
      vertex 11.750000 -179.779999 3.010000
      vertex -11.750000 -177.779999 3.010000
      vertex -11.750000 -179.779999 3.010000
    endloop
  endfacet
  facet normal -0.353147 -0.090611 0.931170
    outer loop
      vertex 0.152401 -178.805435 -2.975528
      vertex 0.232362 -178.779999 -2.942728
      vertex 0.119658 -178.779999 -2.985471
    endloop
  endfacet
  facet normal -0.119844 0.107011 0.987009
    outer loop
      vertex 0.135886 -178.853531 -2.975528
      vertex 0.119658 -178.779999 -2.985471
      vertex 0.000000 -178.779999 -3.000000
    endloop
  endfacet
  facet normal -0.232366 0.079790 0.969350
    outer loop
      vertex 0.135886 -178.853531 -2.975528
      vertex 0.152401 -178.805435 -2.975528
      vertex 0.119658 -178.779999 -2.985471
    endloop
  endfacet
  facet normal -0.414038 0.142172 0.899088
    outer loop
      vertex 0.135886 -178.853531 -2.975528
      vertex 0.232362 -178.779999 -2.942728
      vertex 0.152401 -178.805435 -2.975528
    endloop
  endfacet
  facet normal -0.125124 0.097368 0.987352
    outer loop
      vertex 0.104646 -178.893677 -2.975528
      vertex 0.135886 -178.853531 -2.975528
      vertex 0.000000 -178.779999 -3.000000
    endloop
  endfacet
  facet normal -0.086709 0.132730 0.987352
    outer loop
      vertex 0.062065 -178.921494 -2.975528
      vertex 0.104646 -178.893677 -2.975528
      vertex 0.000000 -178.779999 -3.000000
    endloop
  endfacet
  facet normal -0.567108 0.058021 0.821597
    outer loop
      vertex 0.277969 -178.875427 -2.904509
      vertex 0.331561 -178.779999 -2.874255
      vertex 0.232362 -178.779999 -2.942728
    endloop
  endfacet
  facet normal -0.422332 0.155790 0.892953
    outer loop
      vertex 0.277969 -178.875427 -2.904509
      vertex 0.232362 -178.779999 -2.942728
      vertex 0.135886 -178.853531 -2.975528
    endloop
  endfacet
  facet normal -0.038908 0.153698 0.987352
    outer loop
      vertex 0.012759 -178.933975 -2.975528
      vertex 0.062065 -178.921494 -2.975528
      vertex 0.000000 -178.779999 -3.000000
    endloop
  endfacet
  facet normal -0.354033 0.275499 0.893734
    outer loop
      vertex 0.231923 -178.960510 -2.904509
      vertex 0.135886 -178.853531 -2.975528
      vertex 0.104646 -178.893677 -2.975528
    endloop
  endfacet
  facet normal -0.408562 0.221110 0.885544
    outer loop
      vertex 0.231923 -178.960510 -2.904509
      vertex 0.277969 -178.875427 -2.904509
      vertex 0.135886 -178.853531 -2.975528
    endloop
  endfacet
  facet normal 0.013080 0.158006 0.987352
    outer loop
      vertex -0.037930 -178.929779 -2.975528
      vertex 0.012759 -178.933975 -2.975528
      vertex 0.000000 -178.779999 -3.000000
    endloop
  endfacet
  facet normal -0.314639 0.341806 0.885534
    outer loop
      vertex 0.160744 -179.026031 -2.904509
      vertex 0.231923 -178.960510 -2.904509
      vertex 0.104646 -178.893677 -2.975528
    endloop
  endfacet
  facet normal -0.245351 0.375570 0.893728
    outer loop
      vertex 0.160744 -179.026031 -2.904509
      vertex 0.104646 -178.893677 -2.975528
      vertex 0.062065 -178.921494 -2.975528
    endloop
  endfacet
  facet normal -0.747841 0.042293 0.662529
    outer loop
      vertex 0.398992 -178.846573 -2.793893
      vertex 0.411492 -178.779999 -2.784032
      vertex 0.331561 -178.779999 -2.874255
    endloop
  endfacet
  facet normal -0.881283 0.096970 0.462533
    outer loop
      vertex 0.398992 -178.846573 -2.793893
      vertex 0.467508 -178.779999 -2.677302
      vertex 0.411492 -178.779999 -2.784032
    endloop
  endfacet
  facet normal 0.063687 0.145190 0.987352
    outer loop
      vertex -0.084508 -178.909348 -2.975528
      vertex -0.037930 -178.929779 -2.975528
      vertex 0.000000 -178.779999 -3.000000
    endloop
  endfacet
  facet normal -0.186623 0.425440 0.885535
    outer loop
      vertex 0.072146 -179.064896 -2.904509
      vertex 0.160744 -179.026031 -2.904509
      vertex 0.062065 -178.921494 -2.975528
    endloop
  endfacet
  facet normal -0.110089 0.434881 0.893733
    outer loop
      vertex 0.072146 -179.064896 -2.904509
      vertex 0.062065 -178.921494 -2.975528
      vertex 0.012759 -178.933975 -2.975528
    endloop
  endfacet
  facet normal -0.886924 0.304479 0.347359
    outer loop
      vertex 0.355755 -178.972519 -2.793893
      vertex 0.467508 -178.779999 -2.677302
      vertex 0.398992 -178.846573 -2.793893
    endloop
  endfacet
  facet normal -0.610721 0.330516 0.719569
    outer loop
      vertex 0.355755 -178.972519 -2.793893
      vertex 0.277969 -178.875427 -2.904509
      vertex 0.231923 -178.960510 -2.904509
    endloop
  endfacet
  facet normal -0.648200 0.222525 0.728231
    outer loop
      vertex 0.355755 -178.972519 -2.793893
      vertex 0.398992 -178.846573 -2.793893
      vertex 0.331561 -178.779999 -2.874255
    endloop
  endfacet
  facet normal -0.716881 0.189932 0.670826
    outer loop
      vertex 0.355755 -178.972519 -2.793893
      vertex 0.331561 -178.779999 -2.874255
      vertex 0.277969 -178.875427 -2.904509
    endloop
  endfacet
  facet normal 0.107361 0.116656 0.987352
    outer loop
      vertex -0.121929 -178.874908 -2.975528
      vertex -0.084508 -178.909348 -2.975528
      vertex 0.000000 -178.779999 -3.000000
    endloop
  endfacet
  facet normal 0.037008 0.447053 0.893741
    outer loop
      vertex -0.024269 -179.072891 -2.904509
      vertex 0.012759 -178.933975 -2.975528
      vertex -0.037930 -178.929779 -2.975528
    endloop
  endfacet
  facet normal -0.038393 0.462962 0.885546
    outer loop
      vertex -0.024269 -179.072891 -2.904509
      vertex 0.072146 -179.064896 -2.904509
      vertex 0.012759 -178.933975 -2.975528
    endloop
  endfacet
  facet normal -0.470295 0.510902 0.719584
    outer loop
      vertex 0.273966 -179.077606 -2.793893
      vertex 0.231923 -178.960510 -2.904509
      vertex 0.160744 -179.026031 -2.904509
    endloop
  endfacet
  facet normal -0.572103 0.445263 0.688795
    outer loop
      vertex 0.273966 -179.077606 -2.793893
      vertex 0.355755 -178.972519 -2.793893
      vertex 0.231923 -178.960510 -2.904509
    endloop
  endfacet
  facet normal 0.139437 0.075449 0.987352
    outer loop
      vertex -0.146137 -178.830170 -2.975528
      vertex -0.121929 -178.874908 -2.975528
      vertex 0.000000 -178.779999 -3.000000
    endloop
  endfacet
  facet normal 0.114080 0.450339 0.885539
    outer loop
      vertex -0.118055 -179.049133 -2.904509
      vertex -0.024269 -179.072891 -2.904509
      vertex -0.037930 -178.929779 -2.975528
    endloop
  endfacet
  facet normal 0.180205 0.410821 0.893729
    outer loop
      vertex -0.118055 -179.049133 -2.904509
      vertex -0.037930 -178.929779 -2.975528
      vertex -0.084508 -178.909348 -2.975528
    endloop
  endfacet
  facet normal -0.396501 0.606901 0.688810
    outer loop
      vertex 0.162489 -179.150436 -2.793893
      vertex 0.273966 -179.077606 -2.793893
      vertex 0.160744 -179.026031 -2.904509
    endloop
  endfacet
  facet normal -0.278949 0.635913 0.719585
    outer loop
      vertex 0.162489 -179.150436 -2.793893
      vertex 0.160744 -179.026031 -2.904509
      vertex 0.072146 -179.064896 -2.904509
    endloop
  endfacet
  facet normal 0.156381 0.026094 0.987352
    outer loop
      vertex -0.154509 -178.779999 -2.975528
      vertex -0.146137 -178.830170 -2.975528
      vertex 0.000000 -178.779999 -3.000000
    endloop
  endfacet
  facet normal -0.960630 0.145357 0.236774
    outer loop
      vertex 0.449763 -178.934402 -2.654509
      vertex 0.496354 -178.779999 -2.560268
      vertex 0.467508 -178.779999 -2.677302
    endloop
  endfacet
  facet normal -0.837848 0.172740 0.517853
    outer loop
      vertex 0.449763 -178.934402 -2.654509
      vertex 0.467508 -178.779999 -2.677302
      vertex 0.355755 -178.972519 -2.793893
    endloop
  endfacet
  facet normal 0.254046 0.388941 0.885543
    outer loop
      vertex -0.199048 -178.996231 -2.904509
      vertex -0.118055 -179.049133 -2.904509
      vertex -0.084508 -178.909348 -2.975528
    endloop
  endfacet
  facet normal 0.303777 0.330078 0.893738
    outer loop
      vertex -0.199048 -178.996231 -2.904509
      vertex -0.084508 -178.909348 -2.975528
      vertex -0.121929 -178.874908 -2.975528
    endloop
  endfacet
  facet normal -0.177943 0.702777 0.688797
    outer loop
      vertex 0.033404 -179.183121 -2.793893
      vertex 0.162489 -179.150436 -2.793893
      vertex 0.072146 -179.064896 -2.904509
    endloop
  endfacet
  facet normal -0.057391 0.692055 0.719560
    outer loop
      vertex 0.033404 -179.183121 -2.793893
      vertex 0.072146 -179.064896 -2.904509
      vertex -0.024269 -179.072891 -2.904509
    endloop
  endfacet
  facet normal 0.156381 -0.026094 0.987352
    outer loop
      vertex -0.146137 -178.729828 -2.975528
      vertex -0.154509 -178.779999 -2.975528
      vertex 0.000000 -178.779999 -3.000000
    endloop
  endfacet
  facet normal -0.798085 0.431876 0.420170
    outer loop
      vertex 0.375259 -179.072083 -2.654509
      vertex 0.449763 -178.934402 -2.654509
      vertex 0.355755 -178.972519 -2.793893
    endloop
  endfacet
  facet normal -0.691719 0.538358 0.481348
    outer loop
      vertex 0.375259 -179.072083 -2.654509
      vertex 0.355755 -178.972519 -2.793893
      vertex 0.273966 -179.077606 -2.793893
    endloop
  endfacet
  facet normal 0.394548 0.213488 0.893731
    outer loop
      vertex -0.258471 -178.919876 -2.904509
      vertex -0.121929 -178.874908 -2.975528
      vertex -0.146137 -178.830170 -2.975528
    endloop
  endfacet
  facet normal 0.366627 0.285326 0.885536
    outer loop
      vertex -0.258471 -178.919876 -2.904509
      vertex -0.199048 -178.996231 -2.904509
      vertex -0.121929 -178.874908 -2.975528
    endloop
  endfacet
  facet normal 0.059814 0.722495 0.688784
    outer loop
      vertex -0.099301 -179.172134 -2.793893
      vertex 0.033404 -179.183121 -2.793893
      vertex -0.024269 -179.072891 -2.904509
    endloop
  endfacet
  facet normal 0.170519 0.673135 0.719592
    outer loop
      vertex -0.099301 -179.172134 -2.793893
      vertex -0.024269 -179.072891 -2.904509
      vertex -0.118055 -179.049133 -2.904509
    endloop
  endfacet
  facet normal 0.139430 -0.075470 0.987352
    outer loop
      vertex -0.121929 -178.685104 -2.975528
      vertex -0.146137 -178.729828 -2.975528
      vertex 0.000000 -178.779999 -3.000000
    endloop
  endfacet
  facet normal -0.614587 0.667637 0.420172
    outer loop
      vertex 0.260089 -179.178101 -2.654509
      vertex 0.375259 -179.072083 -2.654509
      vertex 0.273966 -179.077606 -2.793893
    endloop
  endfacet
  facet normal -0.479413 0.733809 0.481339
    outer loop
      vertex 0.260089 -179.178101 -2.654509
      vertex 0.273966 -179.077606 -2.793893
      vertex 0.162489 -179.150436 -2.793893
    endloop
  endfacet
  facet normal 0.439397 0.150841 0.885538
    outer loop
      vertex -0.289884 -178.828369 -2.904509
      vertex -0.258471 -178.919876 -2.904509
      vertex -0.146137 -178.830170 -2.975528
    endloop
  endfacet
  facet normal 0.442481 0.073834 0.893733
    outer loop
      vertex -0.289884 -178.828369 -2.904509
      vertex -0.146137 -178.830170 -2.975528
      vertex -0.154509 -178.779999 -2.975528
    endloop
  endfacet
  facet normal -0.999257 0.038532 0.000000
    outer loop
      vertex 0.493181 -178.862305 -2.500000
      vertex 0.496354 -178.779999 -2.439732
      vertex 0.496354 -178.779999 -2.560268
    endloop
  endfacet
  facet normal 0.291239 0.663863 0.688815
    outer loop
      vertex -0.221245 -179.118637 -2.793893
      vertex -0.099301 -179.172134 -2.793893
      vertex -0.118055 -179.049133 -2.904509
    endloop
  endfacet
  facet normal 0.379750 0.581393 0.719564
    outer loop
      vertex -0.221245 -179.118637 -2.793893
      vertex -0.118055 -179.049133 -2.904509
      vertex -0.199048 -178.996231 -2.904509
    endloop
  endfacet
  facet normal 0.107391 -0.116637 0.987352
    outer loop
      vertex -0.084508 -178.650650 -2.975528
      vertex -0.121929 -178.685104 -2.975528
      vertex 0.000000 -178.779999 -3.000000
    endloop
  endfacet
  facet normal -0.215146 0.849709 0.481359
    outer loop
      vertex 0.116735 -179.240982 -2.654509
      vertex 0.162489 -179.150436 -2.793893
      vertex 0.033404 -179.183121 -2.793893
    endloop
  endfacet
  facet normal -0.364518 0.831010 0.420179
    outer loop
      vertex 0.116735 -179.240982 -2.654509
      vertex 0.260089 -179.178101 -2.654509
      vertex 0.162489 -179.150436 -2.793893
    endloop
  endfacet
  facet normal 0.442481 -0.073834 0.893733
    outer loop
      vertex -0.289884 -178.731628 -2.904509
      vertex -0.154509 -178.779999 -2.975528
      vertex -0.146137 -178.729828 -2.975528
    endloop
  endfacet
  facet normal 0.464564 0.000000 0.885540
    outer loop
      vertex -0.289884 -178.731628 -2.904509
      vertex -0.289884 -178.828369 -2.904509
      vertex -0.154509 -178.779999 -2.975528
    endloop
  endfacet
  facet normal -0.862348 0.466651 0.196451
    outer loop
      vertex 0.439737 -179.017975 -2.500000
      vertex 0.449763 -178.934402 -2.654509
      vertex 0.375259 -179.072083 -2.654509
    endloop
  endfacet
  facet normal -0.880083 0.302145 -0.366281
    outer loop
      vertex 0.439737 -179.017975 -2.500000
      vertex 0.496354 -178.779999 -2.439732
      vertex 0.493181 -178.862305 -2.500000
    endloop
  endfacet
  facet normal -0.880083 0.302145 0.366281
    outer loop
      vertex 0.439737 -179.017975 -2.500000
      vertex 0.493181 -178.862305 -2.500000
      vertex 0.496354 -178.779999 -2.560268
    endloop
  endfacet
  facet normal -0.966138 0.247944 0.071419
    outer loop
      vertex 0.439737 -179.017975 -2.500000
      vertex 0.496354 -178.779999 -2.560268
      vertex 0.449763 -178.934402 -2.654509
    endloop
  endfacet
  facet normal 0.490989 0.533399 0.688778
    outer loop
      vertex -0.319214 -179.028458 -2.793893
      vertex -0.221245 -179.118637 -2.793893
      vertex -0.199048 -178.996231 -2.904509
    endloop
  endfacet
  facet normal 0.548012 0.426487 0.719577
    outer loop
      vertex -0.319214 -179.028458 -2.793893
      vertex -0.199048 -178.996231 -2.904509
      vertex -0.258471 -178.919876 -2.904509
    endloop
  endfacet
  facet normal 0.063687 -0.145190 0.987352
    outer loop
      vertex -0.037930 -178.630219 -2.975528
      vertex -0.084508 -178.650650 -2.975528
      vertex 0.000000 -178.779999 -3.000000
    endloop
  endfacet
  facet normal 0.072319 0.873549 0.481334
    outer loop
      vertex -0.039269 -179.253906 -2.654509
      vertex 0.033404 -179.183121 -2.793893
      vertex -0.099301 -179.172134 -2.793893
    endloop
  endfacet
  facet normal -0.074920 0.904334 0.420200
    outer loop
      vertex -0.039269 -179.253906 -2.654509
      vertex 0.116735 -179.240982 -2.654509
      vertex 0.033404 -179.183121 -2.793893
    endloop
  endfacet
  facet normal 0.439397 -0.150841 0.885538
    outer loop
      vertex -0.258471 -178.640121 -2.904509
      vertex -0.289884 -178.731628 -2.904509
      vertex -0.146137 -178.729828 -2.975528
    endloop
  endfacet
  facet normal 0.394510 -0.213540 0.893735
    outer loop
      vertex -0.258471 -178.640121 -2.904509
      vertex -0.146137 -178.729828 -2.975528
      vertex -0.121929 -178.685104 -2.975528
    endloop
  endfacet
  facet normal -0.664080 0.721402 0.196411
    outer loop
      vertex 0.338641 -179.147858 -2.500000
      vertex 0.375259 -179.072083 -2.654509
      vertex 0.260089 -179.178101 -2.654509
    endloop
  endfacet
  facet normal -0.784031 0.610261 0.113477
    outer loop
      vertex 0.338641 -179.147858 -2.500000
      vertex 0.439737 -179.017975 -2.500000
      vertex 0.375259 -179.072083 -2.654509
    endloop
  endfacet
  facet normal 0.637573 0.345035 0.688804
    outer loop
      vertex -0.382591 -178.911346 -2.793893
      vertex -0.319214 -179.028458 -2.793893
      vertex -0.258471 -178.919876 -2.904509
    endloop
  endfacet
  facet normal 0.656785 0.225468 0.719581
    outer loop
      vertex -0.382591 -178.911346 -2.793893
      vertex -0.258471 -178.919876 -2.904509
      vertex -0.289884 -178.828369 -2.904509
    endloop
  endfacet
  facet normal 0.013080 -0.158006 0.987352
    outer loop
      vertex 0.012759 -178.626022 -2.975528
      vertex -0.037930 -178.630219 -2.975528
      vertex 0.000000 -178.779999 -3.000000
    endloop
  endfacet
  facet normal 0.222819 0.879690 0.420116
    outer loop
      vertex -0.191018 -179.215469 -2.654509
      vertex -0.039269 -179.253906 -2.654509
      vertex -0.099301 -179.172134 -2.793893
    endloop
  endfacet
  facet normal 0.352153 0.802714 0.481288
    outer loop
      vertex -0.191018 -179.215469 -2.654509
      vertex -0.099301 -179.172134 -2.793893
      vertex -0.221245 -179.118637 -2.793893
    endloop
  endfacet
  facet normal 0.303860 -0.330021 0.893731
    outer loop
      vertex -0.199048 -178.563782 -2.904509
      vertex -0.121929 -178.685104 -2.975528
      vertex -0.084508 -178.650650 -2.975528
    endloop
  endfacet
  facet normal 0.366590 -0.285353 0.885542
    outer loop
      vertex -0.199048 -178.563782 -2.904509
      vertex -0.258471 -178.640121 -2.904509
      vertex -0.121929 -178.685104 -2.975528
    endloop
  endfacet
  facet normal -0.543425 0.831754 0.113470
    outer loop
      vertex 0.200848 -179.237885 -2.500000
      vertex 0.338641 -179.147858 -2.500000
      vertex 0.260089 -179.178101 -2.654509
    endloop
  endfacet
  facet normal -0.393873 0.897933 0.196418
    outer loop
      vertex 0.200848 -179.237885 -2.500000
      vertex 0.260089 -179.178101 -2.654509
      vertex 0.116735 -179.240982 -2.654509
    endloop
  endfacet
  facet normal 0.694414 0.000000 0.719576
    outer loop
      vertex -0.404509 -178.779999 -2.793893
      vertex -0.289884 -178.828369 -2.904509
      vertex -0.289884 -178.731628 -2.904509
    endloop
  endfacet
  facet normal 0.715065 0.119320 0.688800
    outer loop
      vertex -0.404509 -178.779999 -2.793893
      vertex -0.382591 -178.911346 -2.793893
      vertex -0.289884 -178.828369 -2.904509
    endloop
  endfacet
  facet normal -0.960630 0.145357 -0.236774
    outer loop
      vertex 0.449763 -178.934402 -2.345491
      vertex 0.467508 -178.779999 -2.322698
      vertex 0.496354 -178.779999 -2.439732
    endloop
  endfacet
  facet normal -0.966138 0.247944 -0.071419
    outer loop
      vertex 0.449763 -178.934402 -2.345491
      vertex 0.496354 -178.779999 -2.439732
      vertex 0.439737 -179.017975 -2.500000
    endloop
  endfacet
  facet normal -0.038908 -0.153698 0.987352
    outer loop
      vertex 0.062065 -178.638504 -2.975528
      vertex 0.012759 -178.626022 -2.975528
      vertex 0.000000 -178.779999 -3.000000
    endloop
  endfacet
  facet normal 0.593649 0.644927 0.481300
    outer loop
      vertex -0.322067 -179.129852 -2.654509
      vertex -0.221245 -179.118637 -2.793893
      vertex -0.319214 -179.028458 -2.793893
    endloop
  endfacet
  facet normal 0.496327 0.759699 0.420138
    outer loop
      vertex -0.322067 -179.129852 -2.654509
      vertex -0.191018 -179.215469 -2.654509
      vertex -0.221245 -179.118637 -2.793893
    endloop
  endfacet
  facet normal 0.254106 -0.388922 0.885534
    outer loop
      vertex -0.118055 -178.510864 -2.904509
      vertex -0.199048 -178.563782 -2.904509
      vertex -0.084508 -178.650650 -2.975528
    endloop
  endfacet
  facet normal 0.180205 -0.410821 0.893729
    outer loop
      vertex -0.118055 -178.510864 -2.904509
      vertex -0.084508 -178.650650 -2.975528
      vertex -0.037930 -178.630219 -2.975528
    endloop
  endfacet
  facet normal -0.080954 0.977172 0.196419
    outer loop
      vertex 0.041290 -179.278290 -2.500000
      vertex 0.116735 -179.240982 -2.654509
      vertex -0.039269 -179.253906 -2.654509
    endloop
  endfacet
  facet normal -0.243898 0.963140 0.113466
    outer loop
      vertex 0.041290 -179.278290 -2.500000
      vertex 0.200848 -179.237885 -2.500000
      vertex 0.116735 -179.240982 -2.654509
    endloop
  endfacet
  facet normal 0.656785 -0.225468 0.719581
    outer loop
      vertex -0.382591 -178.648651 -2.793893
      vertex -0.289884 -178.731628 -2.904509
      vertex -0.258471 -178.640121 -2.904509
    endloop
  endfacet
  facet normal 0.715065 -0.119320 0.688800
    outer loop
      vertex -0.382591 -178.648651 -2.793893
      vertex -0.404509 -178.779999 -2.793893
      vertex -0.289884 -178.731628 -2.904509
    endloop
  endfacet
  facet normal -0.784031 0.610261 -0.113477
    outer loop
      vertex 0.375259 -179.072083 -2.345491
      vertex 0.439737 -179.017975 -2.500000
      vertex 0.338641 -179.147858 -2.500000
    endloop
  endfacet
  facet normal -0.862348 0.466651 -0.196450
    outer loop
      vertex 0.375259 -179.072083 -2.345491
      vertex 0.449763 -178.934402 -2.345491
      vertex 0.439737 -179.017975 -2.500000
    endloop
  endfacet
  facet normal -0.086709 -0.132730 0.987352
    outer loop
      vertex 0.104646 -178.666321 -2.975528
      vertex 0.062065 -178.638504 -2.975528
      vertex 0.000000 -178.779999 -3.000000
    endloop
  endfacet
  facet normal 0.770897 0.417186 0.481324
    outer loop
      vertex -0.418215 -179.006332 -2.654509
      vertex -0.319214 -179.028458 -2.793893
      vertex -0.382591 -178.911346 -2.793893
    endloop
  endfacet
  facet normal 0.716089 0.557405 0.420138
    outer loop
      vertex -0.418215 -179.006332 -2.654509
      vertex -0.322067 -179.129852 -2.654509
      vertex -0.319214 -179.028458 -2.793893
    endloop
  endfacet
  facet normal 0.114080 -0.450339 0.885539
    outer loop
      vertex -0.024269 -178.487106 -2.904509
      vertex -0.118055 -178.510864 -2.904509
      vertex -0.037930 -178.630219 -2.975528
    endloop
  endfacet
  facet normal 0.037008 -0.447053 0.893741
    outer loop
      vertex -0.024269 -178.487106 -2.904509
      vertex -0.037930 -178.630219 -2.975528
      vertex 0.012759 -178.626022 -2.975528
    endloop
  endfacet
  facet normal 0.082067 0.990146 0.113470
    outer loop
      vertex -0.122743 -179.264694 -2.500000
      vertex 0.041290 -179.278290 -2.500000
      vertex -0.039269 -179.253906 -2.654509
    endloop
  endfacet
  facet normal 0.240755 0.950500 0.196434
    outer loop
      vertex -0.122743 -179.264694 -2.500000
      vertex -0.039269 -179.253906 -2.654509
      vertex -0.191018 -179.215469 -2.654509
    endloop
  endfacet
  facet normal 0.637573 -0.345035 0.688804
    outer loop
      vertex -0.319214 -178.531540 -2.793893
      vertex -0.382591 -178.648651 -2.793893
      vertex -0.258471 -178.640121 -2.904509
    endloop
  endfacet
  facet normal 0.547960 -0.426531 0.719591
    outer loop
      vertex -0.319214 -178.531540 -2.793893
      vertex -0.258471 -178.640121 -2.904509
      vertex -0.199048 -178.563782 -2.904509
    endloop
  endfacet
  facet normal -0.664080 0.721402 -0.196411
    outer loop
      vertex 0.260089 -179.178101 -2.345491
      vertex 0.375259 -179.072083 -2.345491
      vertex 0.338641 -179.147858 -2.500000
    endloop
  endfacet
  facet normal -0.543425 0.831754 -0.113470
    outer loop
      vertex 0.260089 -179.178101 -2.345491
      vertex 0.338641 -179.147858 -2.500000
      vertex 0.200848 -179.237885 -2.500000
    endloop
  endfacet
  facet normal -0.119844 -0.107011 0.987009
    outer loop
      vertex 0.135886 -178.706467 -2.975528
      vertex 0.000000 -178.779999 -3.000000
      vertex 0.119658 -178.779999 -2.985471
    endloop
  endfacet
  facet normal -0.125124 -0.097368 0.987352
    outer loop
      vertex 0.135886 -178.706467 -2.975528
      vertex 0.104646 -178.666321 -2.975528
      vertex 0.000000 -178.779999 -3.000000
    endloop
  endfacet
  facet normal 0.858284 0.294651 0.420154
    outer loop
      vertex -0.469043 -178.858276 -2.654509
      vertex -0.418215 -179.006332 -2.654509
      vertex -0.382591 -178.911346 -2.793893
    endloop
  endfacet
  facet normal 0.864589 0.144270 0.481322
    outer loop
      vertex -0.469043 -178.858276 -2.654509
      vertex -0.382591 -178.911346 -2.793893
      vertex -0.404509 -178.779999 -2.793893
    endloop
  endfacet
  facet normal -0.881283 0.096970 -0.462533
    outer loop
      vertex 0.398992 -178.846573 -2.206107
      vertex 0.411492 -178.779999 -2.215968
      vertex 0.467508 -178.779999 -2.322698
    endloop
  endfacet
  facet normal -0.747841 0.042293 -0.662529
    outer loop
      vertex 0.398992 -178.846573 -2.206107
      vertex 0.331561 -178.779999 -2.125745
      vertex 0.411492 -178.779999 -2.215968
    endloop
  endfacet
  facet normal -0.038393 -0.462962 0.885546
    outer loop
      vertex 0.072146 -178.495102 -2.904509
      vertex -0.024269 -178.487106 -2.904509
      vertex 0.012759 -178.626022 -2.975528
    endloop
  endfacet
  facet normal -0.110089 -0.434881 0.893733
    outer loop
      vertex 0.072146 -178.495102 -2.904509
      vertex 0.012759 -178.626022 -2.975528
      vertex 0.062065 -178.638504 -2.975528
    endloop
  endfacet
  facet normal 0.536283 0.820856 0.196459
    outer loop
      vertex -0.273474 -179.198578 -2.500000
      vertex -0.191018 -179.215469 -2.654509
      vertex -0.322067 -179.129852 -2.654509
    endloop
  endfacet
  facet normal 0.399096 0.909855 0.113517
    outer loop
      vertex -0.273474 -179.198578 -2.500000
      vertex -0.122743 -179.264694 -2.500000
      vertex -0.191018 -179.215469 -2.654509
    endloop
  endfacet
  facet normal 0.490964 -0.533372 0.688816
    outer loop
      vertex -0.221245 -178.441360 -2.793893
      vertex -0.319214 -178.531540 -2.793893
      vertex -0.199048 -178.563782 -2.904509
    endloop
  endfacet
  facet normal 0.379815 -0.581326 0.719584
    outer loop
      vertex -0.221245 -178.441360 -2.793893
      vertex -0.199048 -178.563782 -2.904509
      vertex -0.118055 -178.510864 -2.904509
    endloop
  endfacet
  facet normal -0.243898 0.963140 -0.113466
    outer loop
      vertex 0.116735 -179.240982 -2.345491
      vertex 0.200848 -179.237885 -2.500000
      vertex 0.041290 -179.278290 -2.500000
    endloop
  endfacet
  facet normal -0.393873 0.897933 -0.196418
    outer loop
      vertex 0.116735 -179.240982 -2.345491
      vertex 0.260089 -179.178101 -2.345491
      vertex 0.200848 -179.237885 -2.500000
    endloop
  endfacet
  facet normal -0.353147 0.090611 0.931170
    outer loop
      vertex 0.152401 -178.754562 -2.975528
      vertex 0.119658 -178.779999 -2.985471
      vertex 0.232362 -178.779999 -2.942728
    endloop
  endfacet
  facet normal -0.232366 -0.079790 0.969350
    outer loop
      vertex 0.152401 -178.754562 -2.975528
      vertex 0.135886 -178.706467 -2.975528
      vertex 0.119658 -178.779999 -2.985471
    endloop
  endfacet
  facet normal -0.414038 -0.142172 0.899088
    outer loop
      vertex 0.152401 -178.754562 -2.975528
      vertex 0.232362 -178.779999 -2.942728
      vertex 0.135886 -178.706467 -2.975528
    endloop
  endfacet
  facet normal 0.907456 0.000000 0.420148
    outer loop
      vertex -0.469043 -178.701736 -2.654509
      vertex -0.469043 -178.858276 -2.654509
      vertex -0.404509 -178.779999 -2.793893
    endloop
  endfacet
  facet normal 0.864596 -0.144271 0.481310
    outer loop
      vertex -0.469043 -178.701736 -2.654509
      vertex -0.404509 -178.779999 -2.793893
      vertex -0.382591 -178.648651 -2.793893
    endloop
  endfacet
  facet normal -0.798085 0.431876 -0.420170
    outer loop
      vertex 0.355755 -178.972519 -2.206107
      vertex 0.449763 -178.934402 -2.345491
      vertex 0.375259 -179.072083 -2.345491
    endloop
  endfacet
  facet normal -0.886924 0.304479 -0.347359
    outer loop
      vertex 0.355755 -178.972519 -2.206107
      vertex 0.398992 -178.846573 -2.206107
      vertex 0.467508 -178.779999 -2.322698
    endloop
  endfacet
  facet normal -0.648200 0.222525 -0.728231
    outer loop
      vertex 0.355755 -178.972519 -2.206107
      vertex 0.331561 -178.779999 -2.125745
      vertex 0.398992 -178.846573 -2.206107
    endloop
  endfacet
  facet normal -0.837848 0.172740 -0.517853
    outer loop
      vertex 0.355755 -178.972519 -2.206107
      vertex 0.467508 -178.779999 -2.322698
      vertex 0.449763 -178.934402 -2.345491
    endloop
  endfacet
  facet normal -0.186623 -0.425440 0.885535
    outer loop
      vertex 0.160744 -178.533966 -2.904509
      vertex 0.072146 -178.495102 -2.904509
      vertex 0.062065 -178.638504 -2.975528
    endloop
  endfacet
  facet normal -0.245351 -0.375570 0.893728
    outer loop
      vertex 0.160744 -178.533966 -2.904509
      vertex 0.062065 -178.638504 -2.975528
      vertex 0.104646 -178.666321 -2.975528
    endloop
  endfacet
  facet normal 0.773732 0.602275 0.196477
    outer loop
      vertex -0.394570 -179.087112 -2.500000
      vertex -0.322067 -179.129852 -2.654509
      vertex -0.418215 -179.006332 -2.654509
    endloop
  endfacet
  facet normal 0.672865 0.731001 0.113536
    outer loop
      vertex -0.394570 -179.087112 -2.500000
      vertex -0.273474 -179.198578 -2.500000
      vertex -0.322067 -179.129852 -2.654509
    endloop
  endfacet
  facet normal 0.170519 -0.673135 0.719592
    outer loop
      vertex -0.099301 -178.387863 -2.793893
      vertex -0.118055 -178.510864 -2.904509
      vertex -0.024269 -178.487106 -2.904509
    endloop
  endfacet
  facet normal 0.291239 -0.663863 0.688815
    outer loop
      vertex -0.099301 -178.387863 -2.793893
      vertex -0.221245 -178.441360 -2.793893
      vertex -0.118055 -178.510864 -2.904509
    endloop
  endfacet
  facet normal -0.080954 0.977172 -0.196419
    outer loop
      vertex -0.039269 -179.253906 -2.345491
      vertex 0.116735 -179.240982 -2.345491
      vertex 0.041290 -179.278290 -2.500000
    endloop
  endfacet
  facet normal 0.082067 0.990146 -0.113470
    outer loop
      vertex -0.039269 -179.253906 -2.345491
      vertex 0.041290 -179.278290 -2.500000
      vertex -0.122743 -179.264694 -2.500000
    endloop
  endfacet
  facet normal 0.770914 -0.417195 0.481289
    outer loop
      vertex -0.418215 -178.553680 -2.654509
      vertex -0.382591 -178.648651 -2.793893
      vertex -0.319214 -178.531540 -2.793893
    endloop
  endfacet
  facet normal 0.858295 -0.294655 0.420128
    outer loop
      vertex -0.418215 -178.553680 -2.654509
      vertex -0.469043 -178.701736 -2.654509
      vertex -0.382591 -178.648651 -2.793893
    endloop
  endfacet
  facet normal -0.691719 0.538358 -0.481348
    outer loop
      vertex 0.273966 -179.077606 -2.206107
      vertex 0.355755 -178.972519 -2.206107
      vertex 0.375259 -179.072083 -2.345491
    endloop
  endfacet
  facet normal -0.614587 0.667637 -0.420172
    outer loop
      vertex 0.273966 -179.077606 -2.206107
      vertex 0.375259 -179.072083 -2.345491
      vertex 0.260089 -179.178101 -2.345491
    endloop
  endfacet
  facet normal -0.354033 -0.275499 0.893734
    outer loop
      vertex 0.231923 -178.599487 -2.904509
      vertex 0.104646 -178.666321 -2.975528
      vertex 0.135886 -178.706467 -2.975528
    endloop
  endfacet
  facet normal -0.314639 -0.341806 0.885534
    outer loop
      vertex 0.231923 -178.599487 -2.904509
      vertex 0.160744 -178.533966 -2.904509
      vertex 0.104646 -178.666321 -2.975528
    endloop
  endfacet
  facet normal 0.873795 0.472863 0.113505
    outer loop
      vertex -0.472909 -178.942352 -2.500000
      vertex -0.394570 -179.087112 -2.500000
      vertex -0.418215 -179.006332 -2.654509
    endloop
  endfacet
  facet normal 0.927387 0.318374 0.196448
    outer loop
      vertex -0.472909 -178.942352 -2.500000
      vertex -0.418215 -179.006332 -2.654509
      vertex -0.469043 -178.858276 -2.654509
    endloop
  endfacet
  facet normal -0.057391 -0.692055 0.719560
    outer loop
      vertex 0.033404 -178.376877 -2.793893
      vertex -0.024269 -178.487106 -2.904509
      vertex 0.072146 -178.495102 -2.904509
    endloop
  endfacet
  facet normal 0.059814 -0.722495 0.688784
    outer loop
      vertex 0.033404 -178.376877 -2.793893
      vertex -0.099301 -178.387863 -2.793893
      vertex -0.024269 -178.487106 -2.904509
    endloop
  endfacet
  facet normal 0.399096 0.909855 -0.113517
    outer loop
      vertex -0.191018 -179.215469 -2.345491
      vertex -0.122743 -179.264694 -2.500000
      vertex -0.273474 -179.198578 -2.500000
    endloop
  endfacet
  facet normal 0.240755 0.950500 -0.196434
    outer loop
      vertex -0.191018 -179.215469 -2.345491
      vertex -0.039269 -179.253906 -2.345491
      vertex -0.122743 -179.264694 -2.500000
    endloop
  endfacet
  facet normal 0.593649 -0.644927 0.481300
    outer loop
      vertex -0.322067 -178.430145 -2.654509
      vertex -0.319214 -178.531540 -2.793893
      vertex -0.221245 -178.441360 -2.793893
    endloop
  endfacet
  facet normal 0.716132 -0.557369 0.420113
    outer loop
      vertex -0.322067 -178.430145 -2.654509
      vertex -0.418215 -178.553680 -2.654509
      vertex -0.319214 -178.531540 -2.793893
    endloop
  endfacet
  facet normal -0.364518 0.831010 -0.420179
    outer loop
      vertex 0.162489 -179.150436 -2.206107
      vertex 0.260089 -179.178101 -2.345491
      vertex 0.116735 -179.240982 -2.345491
    endloop
  endfacet
  facet normal -0.479413 0.733809 -0.481339
    outer loop
      vertex 0.162489 -179.150436 -2.206107
      vertex 0.273966 -179.077606 -2.206107
      vertex 0.260089 -179.178101 -2.345491
    endloop
  endfacet
  facet normal -0.567108 -0.058021 0.821597
    outer loop
      vertex 0.277969 -178.684570 -2.904509
      vertex 0.232362 -178.779999 -2.942728
      vertex 0.331561 -178.779999 -2.874255
    endloop
  endfacet
  facet normal -0.422332 -0.155790 0.892953
    outer loop
      vertex 0.277969 -178.684570 -2.904509
      vertex 0.135886 -178.706467 -2.975528
      vertex 0.232362 -178.779999 -2.942728
    endloop
  endfacet
  facet normal -0.408562 -0.221110 0.885544
    outer loop
      vertex 0.277969 -178.684570 -2.904509
      vertex 0.231923 -178.599487 -2.904509
      vertex 0.135886 -178.706467 -2.975528
    endloop
  endfacet
  facet normal 0.979988 0.163527 0.113504
    outer loop
      vertex -0.500000 -178.779999 -2.500000
      vertex -0.472909 -178.942352 -2.500000
      vertex -0.469043 -178.858276 -2.654509
    endloop
  endfacet
  facet normal 0.980513 0.000000 0.196456
    outer loop
      vertex -0.500000 -178.779999 -2.500000
      vertex -0.469043 -178.858276 -2.654509
      vertex -0.469043 -178.701736 -2.654509
    endloop
  endfacet
  facet normal -0.567108 0.058021 -0.821597
    outer loop
      vertex 0.277969 -178.875427 -2.095491
      vertex 0.232362 -178.779999 -2.057272
      vertex 0.331561 -178.779999 -2.125745
    endloop
  endfacet
  facet normal -0.716881 0.189932 -0.670826
    outer loop
      vertex 0.277969 -178.875427 -2.095491
      vertex 0.331561 -178.779999 -2.125745
      vertex 0.355755 -178.972519 -2.206107
    endloop
  endfacet
  facet normal -0.278949 -0.635913 0.719585
    outer loop
      vertex 0.162489 -178.409561 -2.793893
      vertex 0.072146 -178.495102 -2.904509
      vertex 0.160744 -178.533966 -2.904509
    endloop
  endfacet
  facet normal -0.177943 -0.702777 0.688797
    outer loop
      vertex 0.162489 -178.409561 -2.793893
      vertex 0.033404 -178.376877 -2.793893
      vertex 0.072146 -178.495102 -2.904509
    endloop
  endfacet
  facet normal 0.672865 0.731001 -0.113536
    outer loop
      vertex -0.322067 -179.129852 -2.345491
      vertex -0.273474 -179.198578 -2.500000
      vertex -0.394570 -179.087112 -2.500000
    endloop
  endfacet
  facet normal 0.536283 0.820856 -0.196459
    outer loop
      vertex -0.322067 -179.129852 -2.345491
      vertex -0.191018 -179.215469 -2.345491
      vertex -0.273474 -179.198578 -2.500000
    endloop
  endfacet
  facet normal 0.352153 -0.802714 0.481288
    outer loop
      vertex -0.191018 -178.344528 -2.654509
      vertex -0.221245 -178.441360 -2.793893
      vertex -0.099301 -178.387863 -2.793893
    endloop
  endfacet
  facet normal 0.496327 -0.759699 0.420138
    outer loop
      vertex -0.191018 -178.344528 -2.654509
      vertex -0.322067 -178.430145 -2.654509
      vertex -0.221245 -178.441360 -2.793893
    endloop
  endfacet
  facet normal -0.215146 0.849709 -0.481359
    outer loop
      vertex 0.033404 -179.183121 -2.206107
      vertex 0.162489 -179.150436 -2.206107
      vertex 0.116735 -179.240982 -2.345491
    endloop
  endfacet
  facet normal -0.074920 0.904334 -0.420200
    outer loop
      vertex 0.033404 -179.183121 -2.206107
      vertex 0.116735 -179.240982 -2.345491
      vertex -0.039269 -179.253906 -2.345491
    endloop
  endfacet
  facet normal 0.979986 -0.163527 0.113520
    outer loop
      vertex -0.472909 -178.617645 -2.500000
      vertex -0.500000 -178.779999 -2.500000
      vertex -0.469043 -178.701736 -2.654509
    endloop
  endfacet
  facet normal 0.927381 -0.318372 0.196478
    outer loop
      vertex -0.472909 -178.617645 -2.500000
      vertex -0.469043 -178.701736 -2.654509
      vertex -0.418215 -178.553680 -2.654509
    endloop
  endfacet
  facet normal -0.610720 0.330516 -0.719569
    outer loop
      vertex 0.231923 -178.960510 -2.095491
      vertex 0.277969 -178.875427 -2.095491
      vertex 0.355755 -178.972519 -2.206107
    endloop
  endfacet
  facet normal -0.572103 0.445263 -0.688795
    outer loop
      vertex 0.231923 -178.960510 -2.095491
      vertex 0.355755 -178.972519 -2.206107
      vertex 0.273966 -179.077606 -2.206107
    endloop
  endfacet
  facet normal -0.396501 -0.606901 0.688810
    outer loop
      vertex 0.273966 -178.482391 -2.793893
      vertex 0.162489 -178.409561 -2.793893
      vertex 0.160744 -178.533966 -2.904509
    endloop
  endfacet
  facet normal -0.470295 -0.510902 0.719584
    outer loop
      vertex 0.273966 -178.482391 -2.793893
      vertex 0.160744 -178.533966 -2.904509
      vertex 0.231923 -178.599487 -2.904509
    endloop
  endfacet
  facet normal 0.873795 0.472863 -0.113505
    outer loop
      vertex -0.418215 -179.006332 -2.345491
      vertex -0.394570 -179.087112 -2.500000
      vertex -0.472909 -178.942352 -2.500000
    endloop
  endfacet
  facet normal 0.773732 0.602275 -0.196477
    outer loop
      vertex -0.418215 -179.006332 -2.345491
      vertex -0.322067 -179.129852 -2.345491
      vertex -0.394570 -179.087112 -2.500000
    endloop
  endfacet
  facet normal 0.222819 -0.879690 0.420116
    outer loop
      vertex -0.039269 -178.306091 -2.654509
      vertex -0.191018 -178.344528 -2.654509
      vertex -0.099301 -178.387863 -2.793893
    endloop
  endfacet
  facet normal 0.072319 -0.873549 0.481334
    outer loop
      vertex -0.039269 -178.306091 -2.654509
      vertex -0.099301 -178.387863 -2.793893
      vertex 0.033404 -178.376877 -2.793893
    endloop
  endfacet
  facet normal 0.072319 0.873549 -0.481334
    outer loop
      vertex -0.099301 -179.172134 -2.206107
      vertex 0.033404 -179.183121 -2.206107
      vertex -0.039269 -179.253906 -2.345491
    endloop
  endfacet
  facet normal 0.222819 0.879690 -0.420116
    outer loop
      vertex -0.099301 -179.172134 -2.206107
      vertex -0.039269 -179.253906 -2.345491
      vertex -0.191018 -179.215469 -2.345491
    endloop
  endfacet
  facet normal 0.873772 -0.472900 0.113528
    outer loop
      vertex -0.394570 -178.472900 -2.500000
      vertex -0.472909 -178.617645 -2.500000
      vertex -0.418215 -178.553680 -2.654509
    endloop
  endfacet
  facet normal 0.773773 -0.602232 0.196448
    outer loop
      vertex -0.394570 -178.472900 -2.500000
      vertex -0.418215 -178.553680 -2.654509
      vertex -0.322067 -178.430145 -2.654509
    endloop
  endfacet
  facet normal -0.470295 0.510902 -0.719584
    outer loop
      vertex 0.160744 -179.026031 -2.095491
      vertex 0.231923 -178.960510 -2.095491
      vertex 0.273966 -179.077606 -2.206107
    endloop
  endfacet
  facet normal -0.396501 0.606901 -0.688810
    outer loop
      vertex 0.160744 -179.026031 -2.095491
      vertex 0.273966 -179.077606 -2.206107
      vertex 0.162489 -179.150436 -2.206107
    endloop
  endfacet
  facet normal -0.572103 -0.445263 0.688795
    outer loop
      vertex 0.355755 -178.587479 -2.793893
      vertex 0.273966 -178.482391 -2.793893
      vertex 0.231923 -178.599487 -2.904509
    endloop
  endfacet
  facet normal -0.716881 -0.189932 0.670826
    outer loop
      vertex 0.355755 -178.587479 -2.793893
      vertex 0.277969 -178.684570 -2.904509
      vertex 0.331561 -178.779999 -2.874255
    endloop
  endfacet
  facet normal -0.610721 -0.330516 0.719569
    outer loop
      vertex 0.355755 -178.587479 -2.793893
      vertex 0.231923 -178.599487 -2.904509
      vertex 0.277969 -178.684570 -2.904509
    endloop
  endfacet
  facet normal 0.927387 0.318374 -0.196448
    outer loop
      vertex -0.469043 -178.858276 -2.345491
      vertex -0.418215 -179.006332 -2.345491
      vertex -0.472909 -178.942352 -2.500000
    endloop
  endfacet
  facet normal 0.979988 0.163527 -0.113504
    outer loop
      vertex -0.469043 -178.858276 -2.345491
      vertex -0.472909 -178.942352 -2.500000
      vertex -0.500000 -178.779999 -2.500000
    endloop
  endfacet
  facet normal -0.353147 -0.090611 -0.931170
    outer loop
      vertex 0.152401 -178.805435 -2.024472
      vertex 0.119658 -178.779999 -2.014529
      vertex 0.232362 -178.779999 -2.057272
    endloop
  endfacet
  facet normal -0.215146 -0.849709 0.481359
    outer loop
      vertex 0.116735 -178.319016 -2.654509
      vertex 0.033404 -178.376877 -2.793893
      vertex 0.162489 -178.409561 -2.793893
    endloop
  endfacet
  facet normal -0.074920 -0.904334 0.420200
    outer loop
      vertex 0.116735 -178.319016 -2.654509
      vertex -0.039269 -178.306091 -2.654509
      vertex 0.033404 -178.376877 -2.793893
    endloop
  endfacet
  facet normal 0.496327 0.759699 -0.420138
    outer loop
      vertex -0.221245 -179.118637 -2.206107
      vertex -0.191018 -179.215469 -2.345491
      vertex -0.322067 -179.129852 -2.345491
    endloop
  endfacet
  facet normal 0.352153 0.802714 -0.481288
    outer loop
      vertex -0.221245 -179.118637 -2.206107
      vertex -0.099301 -179.172134 -2.206107
      vertex -0.191018 -179.215469 -2.345491
    endloop
  endfacet
  facet normal 0.672917 -0.730958 0.113501
    outer loop
      vertex -0.273474 -178.361420 -2.500000
      vertex -0.394570 -178.472900 -2.500000
      vertex -0.322067 -178.430145 -2.654509
    endloop
  endfacet
  facet normal 0.536283 -0.820856 0.196459
    outer loop
      vertex -0.273474 -178.361420 -2.500000
      vertex -0.322067 -178.430145 -2.654509
      vertex -0.191018 -178.344528 -2.654509
    endloop
  endfacet
  facet normal -0.278949 0.635913 -0.719585
    outer loop
      vertex 0.072146 -179.064896 -2.095491
      vertex 0.160744 -179.026031 -2.095491
      vertex 0.162489 -179.150436 -2.206107
    endloop
  endfacet
  facet normal -0.177943 0.702777 -0.688797
    outer loop
      vertex 0.072146 -179.064896 -2.095491
      vertex 0.162489 -179.150436 -2.206107
      vertex 0.033404 -179.183121 -2.206107
    endloop
  endfacet
  facet normal -0.747841 -0.042293 0.662529
    outer loop
      vertex 0.398992 -178.713425 -2.793893
      vertex 0.331561 -178.779999 -2.874255
      vertex 0.411492 -178.779999 -2.784032
    endloop
  endfacet
  facet normal -0.881283 -0.096970 0.462533
    outer loop
      vertex 0.398992 -178.713425 -2.793893
      vertex 0.411492 -178.779999 -2.784032
      vertex 0.467508 -178.779999 -2.677302
    endloop
  endfacet
  facet normal -0.648200 -0.222525 0.728231
    outer loop
      vertex 0.398992 -178.713425 -2.793893
      vertex 0.355755 -178.587479 -2.793893
      vertex 0.331561 -178.779999 -2.874255
    endloop
  endfacet
  facet normal -0.886924 -0.304479 0.347359
    outer loop
      vertex 0.398992 -178.713425 -2.793893
      vertex 0.467508 -178.779999 -2.677302
      vertex 0.355755 -178.587479 -2.793893
    endloop
  endfacet
  facet normal 0.979986 -0.163527 -0.113520
    outer loop
      vertex -0.469043 -178.701736 -2.345491
      vertex -0.500000 -178.779999 -2.500000
      vertex -0.472909 -178.617645 -2.500000
    endloop
  endfacet
  facet normal 0.980513 0.000000 -0.196456
    outer loop
      vertex -0.469043 -178.701736 -2.345491
      vertex -0.469043 -178.858276 -2.345491
      vertex -0.500000 -178.779999 -2.500000
    endloop
  endfacet
  facet normal -0.408562 0.221110 -0.885544
    outer loop
      vertex 0.135886 -178.853531 -2.024472
      vertex 0.277969 -178.875427 -2.095491
      vertex 0.231923 -178.960510 -2.095491
    endloop
  endfacet
  facet normal -0.119844 0.107011 -0.987009
    outer loop
      vertex 0.135886 -178.853531 -2.024472
      vertex 0.000000 -178.779999 -2.000000
      vertex 0.119658 -178.779999 -2.014529
    endloop
  endfacet
  facet normal -0.232366 0.079790 -0.969350
    outer loop
      vertex 0.135886 -178.853531 -2.024472
      vertex 0.119658 -178.779999 -2.014529
      vertex 0.152401 -178.805435 -2.024472
    endloop
  endfacet
  facet normal -0.414038 0.142172 -0.899088
    outer loop
      vertex 0.135886 -178.853531 -2.024472
      vertex 0.152401 -178.805435 -2.024472
      vertex 0.232362 -178.779999 -2.057272
    endloop
  endfacet
  facet normal -0.422332 0.155790 -0.892953
    outer loop
      vertex 0.135886 -178.853531 -2.024472
      vertex 0.232362 -178.779999 -2.057272
      vertex 0.277969 -178.875427 -2.095491
    endloop
  endfacet
  facet normal -0.364518 -0.831010 0.420179
    outer loop
      vertex 0.260089 -178.381897 -2.654509
      vertex 0.116735 -178.319016 -2.654509
      vertex 0.162489 -178.409561 -2.793893
    endloop
  endfacet
  facet normal -0.479413 -0.733809 0.481339
    outer loop
      vertex 0.260089 -178.381897 -2.654509
      vertex 0.162489 -178.409561 -2.793893
      vertex 0.273966 -178.482391 -2.793893
    endloop
  endfacet
  facet normal 0.593649 0.644927 -0.481300
    outer loop
      vertex -0.319214 -179.028458 -2.206107
      vertex -0.221245 -179.118637 -2.206107
      vertex -0.322067 -179.129852 -2.345491
    endloop
  endfacet
  facet normal 0.716089 0.557405 -0.420138
    outer loop
      vertex -0.319214 -179.028458 -2.206107
      vertex -0.322067 -179.129852 -2.345491
      vertex -0.418215 -179.006332 -2.345491
    endloop
  endfacet
  facet normal 0.240755 -0.950500 0.196434
    outer loop
      vertex -0.122743 -178.295303 -2.500000
      vertex -0.191018 -178.344528 -2.654509
      vertex -0.039269 -178.306091 -2.654509
    endloop
  endfacet
  facet normal 0.399096 -0.909855 0.113517
    outer loop
      vertex -0.122743 -178.295303 -2.500000
      vertex -0.273474 -178.361420 -2.500000
      vertex -0.191018 -178.344528 -2.654509
    endloop
  endfacet
  facet normal -0.057391 0.692055 -0.719560
    outer loop
      vertex -0.024269 -179.072891 -2.095491
      vertex 0.072146 -179.064896 -2.095491
      vertex 0.033404 -179.183121 -2.206107
    endloop
  endfacet
  facet normal 0.059814 0.722495 -0.688784
    outer loop
      vertex -0.024269 -179.072891 -2.095491
      vertex 0.033404 -179.183121 -2.206107
      vertex -0.099301 -179.172134 -2.206107
    endloop
  endfacet
  facet normal 0.873772 -0.472900 -0.113528
    outer loop
      vertex -0.418215 -178.553680 -2.345491
      vertex -0.472909 -178.617645 -2.500000
      vertex -0.394570 -178.472900 -2.500000
    endloop
  endfacet
  facet normal 0.927381 -0.318372 -0.196478
    outer loop
      vertex -0.418215 -178.553680 -2.345491
      vertex -0.469043 -178.701736 -2.345491
      vertex -0.472909 -178.617645 -2.500000
    endloop
  endfacet
  facet normal -0.125124 0.097368 -0.987352
    outer loop
      vertex 0.104646 -178.893677 -2.024472
      vertex 0.000000 -178.779999 -2.000000
      vertex 0.135886 -178.853531 -2.024472
    endloop
  endfacet
  facet normal -0.354033 0.275499 -0.893734
    outer loop
      vertex 0.104646 -178.893677 -2.024472
      vertex 0.135886 -178.853531 -2.024472
      vertex 0.231923 -178.960510 -2.095491
    endloop
  endfacet
  facet normal -0.314639 0.341806 -0.885534
    outer loop
      vertex 0.104646 -178.893677 -2.024472
      vertex 0.231923 -178.960510 -2.095491
      vertex 0.160744 -179.026031 -2.095491
    endloop
  endfacet
  facet normal -0.691738 -0.538373 0.481302
    outer loop
      vertex 0.375259 -178.487930 -2.654509
      vertex 0.273966 -178.482391 -2.793893
      vertex 0.355755 -178.587479 -2.793893
    endloop
  endfacet
  facet normal -0.614644 -0.667603 0.420141
    outer loop
      vertex 0.375259 -178.487930 -2.654509
      vertex 0.260089 -178.381897 -2.654509
      vertex 0.273966 -178.482391 -2.793893
    endloop
  endfacet
  facet normal 0.770897 0.417186 -0.481324
    outer loop
      vertex -0.382591 -178.911346 -2.206107
      vertex -0.319214 -179.028458 -2.206107
      vertex -0.418215 -179.006332 -2.345491
    endloop
  endfacet
  facet normal 0.858284 0.294651 -0.420154
    outer loop
      vertex -0.382591 -178.911346 -2.206107
      vertex -0.418215 -179.006332 -2.345491
      vertex -0.469043 -178.858276 -2.345491
    endloop
  endfacet
  facet normal 0.082067 -0.990146 0.113470
    outer loop
      vertex 0.041290 -178.281708 -2.500000
      vertex -0.122743 -178.295303 -2.500000
      vertex -0.039269 -178.306091 -2.654509
    endloop
  endfacet
  facet normal -0.080954 -0.977172 0.196419
    outer loop
      vertex 0.041290 -178.281708 -2.500000
      vertex -0.039269 -178.306091 -2.654509
      vertex 0.116735 -178.319016 -2.654509
    endloop
  endfacet
  facet normal 0.170519 0.673135 -0.719592
    outer loop
      vertex -0.118055 -179.049133 -2.095491
      vertex -0.024269 -179.072891 -2.095491
      vertex -0.099301 -179.172134 -2.206107
    endloop
  endfacet
  facet normal 0.291239 0.663863 -0.688815
    outer loop
      vertex -0.118055 -179.049133 -2.095491
      vertex -0.099301 -179.172134 -2.206107
      vertex -0.221245 -179.118637 -2.206107
    endloop
  endfacet
  facet normal 0.672917 -0.730958 -0.113501
    outer loop
      vertex -0.322067 -178.430145 -2.345491
      vertex -0.394570 -178.472900 -2.500000
      vertex -0.273474 -178.361420 -2.500000
    endloop
  endfacet
  facet normal 0.773773 -0.602232 -0.196448
    outer loop
      vertex -0.322067 -178.430145 -2.345491
      vertex -0.418215 -178.553680 -2.345491
      vertex -0.394570 -178.472900 -2.500000
    endloop
  endfacet
  facet normal -0.086709 0.132730 -0.987352
    outer loop
      vertex 0.062065 -178.921494 -2.024472
      vertex 0.000000 -178.779999 -2.000000
      vertex 0.104646 -178.893677 -2.024472
    endloop
  endfacet
  facet normal -0.186623 0.425440 -0.885535
    outer loop
      vertex 0.062065 -178.921494 -2.024472
      vertex 0.160744 -179.026031 -2.095491
      vertex 0.072146 -179.064896 -2.095491
    endloop
  endfacet
  facet normal -0.245351 0.375570 -0.893728
    outer loop
      vertex 0.062065 -178.921494 -2.024472
      vertex 0.104646 -178.893677 -2.024472
      vertex 0.160744 -179.026031 -2.095491
    endloop
  endfacet
  facet normal -0.960630 -0.145357 0.236774
    outer loop
      vertex 0.449763 -178.625595 -2.654509
      vertex 0.467508 -178.779999 -2.677302
      vertex 0.496354 -178.779999 -2.560268
    endloop
  endfacet
  facet normal -0.837848 -0.172740 0.517853
    outer loop
      vertex 0.449763 -178.625595 -2.654509
      vertex 0.355755 -178.587479 -2.793893
      vertex 0.467508 -178.779999 -2.677302
    endloop
  endfacet
  facet normal -0.798073 -0.431917 0.420151
    outer loop
      vertex 0.449763 -178.625595 -2.654509
      vertex 0.375259 -178.487930 -2.654509
      vertex 0.355755 -178.587479 -2.793893
    endloop
  endfacet
  facet normal 0.907456 0.000000 -0.420148
    outer loop
      vertex -0.404509 -178.779999 -2.206107
      vertex -0.469043 -178.858276 -2.345491
      vertex -0.469043 -178.701736 -2.345491
    endloop
  endfacet
  facet normal 0.864589 0.144270 -0.481322
    outer loop
      vertex -0.404509 -178.779999 -2.206107
      vertex -0.382591 -178.911346 -2.206107
      vertex -0.469043 -178.858276 -2.345491
    endloop
  endfacet
  facet normal -0.243898 -0.963140 0.113466
    outer loop
      vertex 0.200848 -178.322113 -2.500000
      vertex 0.041290 -178.281708 -2.500000
      vertex 0.116735 -178.319016 -2.654509
    endloop
  endfacet
  facet normal -0.393873 -0.897933 0.196418
    outer loop
      vertex 0.200848 -178.322113 -2.500000
      vertex 0.116735 -178.319016 -2.654509
      vertex 0.260089 -178.381897 -2.654509
    endloop
  endfacet
  facet normal 0.490989 0.533399 -0.688778
    outer loop
      vertex -0.199048 -178.996231 -2.095491
      vertex -0.221245 -179.118637 -2.206107
      vertex -0.319214 -179.028458 -2.206107
    endloop
  endfacet
  facet normal 0.379750 0.581393 -0.719564
    outer loop
      vertex -0.199048 -178.996231 -2.095491
      vertex -0.118055 -179.049133 -2.095491
      vertex -0.221245 -179.118637 -2.206107
    endloop
  endfacet
  facet normal 0.536283 -0.820856 -0.196459
    outer loop
      vertex -0.191018 -178.344528 -2.345491
      vertex -0.322067 -178.430145 -2.345491
      vertex -0.273474 -178.361420 -2.500000
    endloop
  endfacet
  facet normal 0.399096 -0.909855 -0.113517
    outer loop
      vertex -0.191018 -178.344528 -2.345491
      vertex -0.273474 -178.361420 -2.500000
      vertex -0.122743 -178.295303 -2.500000
    endloop
  endfacet
  facet normal -0.110089 0.434881 -0.893733
    outer loop
      vertex 0.012759 -178.933975 -2.024472
      vertex 0.062065 -178.921494 -2.024472
      vertex 0.072146 -179.064896 -2.095491
    endloop
  endfacet
  facet normal -0.038393 0.462962 -0.885546
    outer loop
      vertex 0.012759 -178.933975 -2.024472
      vertex 0.072146 -179.064896 -2.095491
      vertex -0.024269 -179.072891 -2.095491
    endloop
  endfacet
  facet normal -0.038908 0.153698 -0.987352
    outer loop
      vertex 0.012759 -178.933975 -2.024472
      vertex 0.000000 -178.779999 -2.000000
      vertex 0.062065 -178.921494 -2.024472
    endloop
  endfacet
  facet normal 0.864596 -0.144271 -0.481310
    outer loop
      vertex -0.382591 -178.648651 -2.206107
      vertex -0.404509 -178.779999 -2.206107
      vertex -0.469043 -178.701736 -2.345491
    endloop
  endfacet
  facet normal 0.858295 -0.294655 -0.420128
    outer loop
      vertex -0.382591 -178.648651 -2.206107
      vertex -0.469043 -178.701736 -2.345491
      vertex -0.418215 -178.553680 -2.345491
    endloop
  endfacet
  facet normal -0.543425 -0.831754 0.113470
    outer loop
      vertex 0.338641 -178.412140 -2.500000
      vertex 0.200848 -178.322113 -2.500000
      vertex 0.260089 -178.381897 -2.654509
    endloop
  endfacet
  facet normal -0.664127 -0.721349 0.196445
    outer loop
      vertex 0.338641 -178.412140 -2.500000
      vertex 0.260089 -178.381897 -2.654509
      vertex 0.375259 -178.487930 -2.654509
    endloop
  endfacet
  facet normal 0.548012 0.426487 -0.719577
    outer loop
      vertex -0.258471 -178.919876 -2.095491
      vertex -0.199048 -178.996231 -2.095491
      vertex -0.319214 -179.028458 -2.206107
    endloop
  endfacet
  facet normal 0.637573 0.345035 -0.688804
    outer loop
      vertex -0.258471 -178.919876 -2.095491
      vertex -0.319214 -179.028458 -2.206107
      vertex -0.382591 -178.911346 -2.206107
    endloop
  endfacet
  facet normal 0.082067 -0.990146 -0.113470
    outer loop
      vertex -0.039269 -178.306091 -2.345491
      vertex -0.122743 -178.295303 -2.500000
      vertex 0.041290 -178.281708 -2.500000
    endloop
  endfacet
  facet normal 0.240755 -0.950500 -0.196434
    outer loop
      vertex -0.039269 -178.306091 -2.345491
      vertex -0.191018 -178.344528 -2.345491
      vertex -0.122743 -178.295303 -2.500000
    endloop
  endfacet
  facet normal 0.013080 0.158006 -0.987352
    outer loop
      vertex -0.037930 -178.929779 -2.024472
      vertex 0.000000 -178.779999 -2.000000
      vertex 0.012759 -178.933975 -2.024472
    endloop
  endfacet
  facet normal 0.037008 0.447053 -0.893741
    outer loop
      vertex -0.037930 -178.929779 -2.024472
      vertex 0.012759 -178.933975 -2.024472
      vertex -0.024269 -179.072891 -2.095491
    endloop
  endfacet
  facet normal 0.114081 0.450339 -0.885539
    outer loop
      vertex -0.037930 -178.929779 -2.024472
      vertex -0.024269 -179.072891 -2.095491
      vertex -0.118055 -179.049133 -2.095491
    endloop
  endfacet
  facet normal 0.716132 -0.557369 -0.420113
    outer loop
      vertex -0.319214 -178.531540 -2.206107
      vertex -0.418215 -178.553680 -2.345491
      vertex -0.322067 -178.430145 -2.345491
    endloop
  endfacet
  facet normal 0.770914 -0.417195 -0.481289
    outer loop
      vertex -0.319214 -178.531540 -2.206107
      vertex -0.382591 -178.648651 -2.206107
      vertex -0.418215 -178.553680 -2.345491
    endloop
  endfacet
  facet normal -0.966138 -0.247944 0.071419
    outer loop
      vertex 0.439737 -178.542023 -2.500000
      vertex 0.449763 -178.625595 -2.654509
      vertex 0.496354 -178.779999 -2.560268
    endloop
  endfacet
  facet normal -0.862322 -0.466689 0.196473
    outer loop
      vertex 0.439737 -178.542023 -2.500000
      vertex 0.375259 -178.487930 -2.654509
      vertex 0.449763 -178.625595 -2.654509
    endloop
  endfacet
  facet normal -0.784025 -0.610257 0.113536
    outer loop
      vertex 0.439737 -178.542023 -2.500000
      vertex 0.338641 -178.412140 -2.500000
      vertex 0.375259 -178.487930 -2.654509
    endloop
  endfacet
  facet normal 0.715065 0.119320 -0.688800
    outer loop
      vertex -0.289884 -178.828369 -2.095491
      vertex -0.382591 -178.911346 -2.206107
      vertex -0.404509 -178.779999 -2.206107
    endloop
  endfacet
  facet normal 0.656785 0.225468 -0.719581
    outer loop
      vertex -0.289884 -178.828369 -2.095491
      vertex -0.258471 -178.919876 -2.095491
      vertex -0.382591 -178.911346 -2.206107
    endloop
  endfacet
  facet normal -0.080954 -0.977172 -0.196419
    outer loop
      vertex 0.116735 -178.319016 -2.345491
      vertex -0.039269 -178.306091 -2.345491
      vertex 0.041290 -178.281708 -2.500000
    endloop
  endfacet
  facet normal -0.243898 -0.963140 -0.113466
    outer loop
      vertex 0.116735 -178.319016 -2.345491
      vertex 0.041290 -178.281708 -2.500000
      vertex 0.200848 -178.322113 -2.500000
    endloop
  endfacet
  facet normal 0.063687 0.145190 -0.987352
    outer loop
      vertex -0.084508 -178.909348 -2.024472
      vertex 0.000000 -178.779999 -2.000000
      vertex -0.037930 -178.929779 -2.024472
    endloop
  endfacet
  facet normal 0.180205 0.410821 -0.893729
    outer loop
      vertex -0.084508 -178.909348 -2.024472
      vertex -0.037930 -178.929779 -2.024472
      vertex -0.118055 -179.049133 -2.095491
    endloop
  endfacet
  facet normal 0.254046 0.388941 -0.885543
    outer loop
      vertex -0.084508 -178.909348 -2.024472
      vertex -0.118055 -179.049133 -2.095491
      vertex -0.199048 -178.996231 -2.095491
    endloop
  endfacet
  facet normal 0.496327 -0.759699 -0.420138
    outer loop
      vertex -0.221245 -178.441360 -2.206107
      vertex -0.322067 -178.430145 -2.345491
      vertex -0.191018 -178.344528 -2.345491
    endloop
  endfacet
  facet normal 0.593649 -0.644927 -0.481300
    outer loop
      vertex -0.221245 -178.441360 -2.206107
      vertex -0.319214 -178.531540 -2.206107
      vertex -0.322067 -178.430145 -2.345491
    endloop
  endfacet
  facet normal -0.999257 -0.038539 0.000000
    outer loop
      vertex 0.493181 -178.697708 -2.500000
      vertex 0.496354 -178.779999 -2.560268
      vertex 0.496354 -178.779999 -2.439732
    endloop
  endfacet
  facet normal -0.880129 -0.302131 0.366183
    outer loop
      vertex 0.493181 -178.697708 -2.500000
      vertex 0.439737 -178.542023 -2.500000
      vertex 0.496354 -178.779999 -2.560268
    endloop
  endfacet
  facet normal -0.880129 -0.302131 -0.366183
    outer loop
      vertex 0.493181 -178.697708 -2.500000
      vertex 0.496354 -178.779999 -2.439732
      vertex 0.439737 -178.542023 -2.500000
    endloop
  endfacet
  facet normal 0.694414 0.000000 -0.719576
    outer loop
      vertex -0.289884 -178.731628 -2.095491
      vertex -0.289884 -178.828369 -2.095491
      vertex -0.404509 -178.779999 -2.206107
    endloop
  endfacet
  facet normal 0.715065 -0.119320 -0.688800
    outer loop
      vertex -0.289884 -178.731628 -2.095491
      vertex -0.404509 -178.779999 -2.206107
      vertex -0.382591 -178.648651 -2.206107
    endloop
  endfacet
  facet normal -0.393873 -0.897933 -0.196418
    outer loop
      vertex 0.260089 -178.381897 -2.345491
      vertex 0.116735 -178.319016 -2.345491
      vertex 0.200848 -178.322113 -2.500000
    endloop
  endfacet
  facet normal -0.543425 -0.831754 -0.113470
    outer loop
      vertex 0.260089 -178.381897 -2.345491
      vertex 0.200848 -178.322113 -2.500000
      vertex 0.338641 -178.412140 -2.500000
    endloop
  endfacet
  facet normal 0.107361 0.116656 -0.987352
    outer loop
      vertex -0.121929 -178.874908 -2.024472
      vertex 0.000000 -178.779999 -2.000000
      vertex -0.084508 -178.909348 -2.024472
    endloop
  endfacet
  facet normal 0.303777 0.330078 -0.893738
    outer loop
      vertex -0.121929 -178.874908 -2.024472
      vertex -0.084508 -178.909348 -2.024472
      vertex -0.199048 -178.996231 -2.095491
    endloop
  endfacet
  facet normal 0.366627 0.285326 -0.885536
    outer loop
      vertex -0.121929 -178.874908 -2.024472
      vertex -0.199048 -178.996231 -2.095491
      vertex -0.258471 -178.919876 -2.095491
    endloop
  endfacet
  facet normal 0.352153 -0.802714 -0.481288
    outer loop
      vertex -0.099301 -178.387863 -2.206107
      vertex -0.221245 -178.441360 -2.206107
      vertex -0.191018 -178.344528 -2.345491
    endloop
  endfacet
  facet normal 0.222819 -0.879690 -0.420116
    outer loop
      vertex -0.099301 -178.387863 -2.206107
      vertex -0.191018 -178.344528 -2.345491
      vertex -0.039269 -178.306091 -2.345491
    endloop
  endfacet
  facet normal 0.637573 -0.345035 -0.688804
    outer loop
      vertex -0.258471 -178.640121 -2.095491
      vertex -0.382591 -178.648651 -2.206107
      vertex -0.319214 -178.531540 -2.206107
    endloop
  endfacet
  facet normal 0.656785 -0.225468 -0.719581
    outer loop
      vertex -0.258471 -178.640121 -2.095491
      vertex -0.289884 -178.731628 -2.095491
      vertex -0.382591 -178.648651 -2.206107
    endloop
  endfacet
  facet normal -0.664127 -0.721349 -0.196445
    outer loop
      vertex 0.375259 -178.487930 -2.345491
      vertex 0.260089 -178.381897 -2.345491
      vertex 0.338641 -178.412140 -2.500000
    endloop
  endfacet
  facet normal -0.784025 -0.610257 -0.113536
    outer loop
      vertex 0.375259 -178.487930 -2.345491
      vertex 0.338641 -178.412140 -2.500000
      vertex 0.439737 -178.542023 -2.500000
    endloop
  endfacet
  facet normal 0.139437 0.075449 -0.987352
    outer loop
      vertex -0.146137 -178.830170 -2.024472
      vertex 0.000000 -178.779999 -2.000000
      vertex -0.121929 -178.874908 -2.024472
    endloop
  endfacet
  facet normal 0.439397 0.150841 -0.885538
    outer loop
      vertex -0.146137 -178.830170 -2.024472
      vertex -0.258471 -178.919876 -2.095491
      vertex -0.289884 -178.828369 -2.095491
    endloop
  endfacet
  facet normal 0.394548 0.213488 -0.893731
    outer loop
      vertex -0.146137 -178.830170 -2.024472
      vertex -0.121929 -178.874908 -2.024472
      vertex -0.258471 -178.919876 -2.095491
    endloop
  endfacet
  facet normal 0.072319 -0.873549 -0.481334
    outer loop
      vertex 0.033404 -178.376877 -2.206107
      vertex -0.099301 -178.387863 -2.206107
      vertex -0.039269 -178.306091 -2.345491
    endloop
  endfacet
  facet normal -0.074920 -0.904334 -0.420200
    outer loop
      vertex 0.033404 -178.376877 -2.206107
      vertex -0.039269 -178.306091 -2.345491
      vertex 0.116735 -178.319016 -2.345491
    endloop
  endfacet
  facet normal 0.490964 -0.533372 -0.688816
    outer loop
      vertex -0.199048 -178.563782 -2.095491
      vertex -0.319214 -178.531540 -2.206107
      vertex -0.221245 -178.441360 -2.206107
    endloop
  endfacet
  facet normal 0.547960 -0.426531 -0.719591
    outer loop
      vertex -0.199048 -178.563782 -2.095491
      vertex -0.258471 -178.640121 -2.095491
      vertex -0.319214 -178.531540 -2.206107
    endloop
  endfacet
  facet normal -0.960630 -0.145357 -0.236774
    outer loop
      vertex 0.449763 -178.625595 -2.345491
      vertex 0.496354 -178.779999 -2.439732
      vertex 0.467508 -178.779999 -2.322698
    endloop
  endfacet
  facet normal -0.966138 -0.247944 -0.071419
    outer loop
      vertex 0.449763 -178.625595 -2.345491
      vertex 0.439737 -178.542023 -2.500000
      vertex 0.496354 -178.779999 -2.439732
    endloop
  endfacet
  facet normal -0.862322 -0.466689 -0.196473
    outer loop
      vertex 0.449763 -178.625595 -2.345491
      vertex 0.375259 -178.487930 -2.345491
      vertex 0.439737 -178.542023 -2.500000
    endloop
  endfacet
  facet normal 0.464564 0.000000 -0.885540
    outer loop
      vertex -0.154509 -178.779999 -2.024472
      vertex -0.289884 -178.828369 -2.095491
      vertex -0.289884 -178.731628 -2.095491
    endloop
  endfacet
  facet normal 0.156381 0.026094 -0.987352
    outer loop
      vertex -0.154509 -178.779999 -2.024472
      vertex 0.000000 -178.779999 -2.000000
      vertex -0.146137 -178.830170 -2.024472
    endloop
  endfacet
  facet normal 0.442481 0.073834 -0.893733
    outer loop
      vertex -0.154509 -178.779999 -2.024472
      vertex -0.146137 -178.830170 -2.024472
      vertex -0.289884 -178.828369 -2.095491
    endloop
  endfacet
  facet normal -0.364518 -0.831010 -0.420179
    outer loop
      vertex 0.162489 -178.409561 -2.206107
      vertex 0.116735 -178.319016 -2.345491
      vertex 0.260089 -178.381897 -2.345491
    endloop
  endfacet
  facet normal -0.215146 -0.849709 -0.481359
    outer loop
      vertex 0.162489 -178.409561 -2.206107
      vertex 0.033404 -178.376877 -2.206107
      vertex 0.116735 -178.319016 -2.345491
    endloop
  endfacet
  facet normal 0.379815 -0.581326 -0.719584
    outer loop
      vertex -0.118055 -178.510864 -2.095491
      vertex -0.199048 -178.563782 -2.095491
      vertex -0.221245 -178.441360 -2.206107
    endloop
  endfacet
  facet normal 0.291239 -0.663863 -0.688815
    outer loop
      vertex -0.118055 -178.510864 -2.095491
      vertex -0.221245 -178.441360 -2.206107
      vertex -0.099301 -178.387863 -2.206107
    endloop
  endfacet
  facet normal 0.442481 -0.073834 -0.893733
    outer loop
      vertex -0.146137 -178.729828 -2.024472
      vertex -0.154509 -178.779999 -2.024472
      vertex -0.289884 -178.731628 -2.095491
    endloop
  endfacet
  facet normal 0.439397 -0.150841 -0.885538
    outer loop
      vertex -0.146137 -178.729828 -2.024472
      vertex -0.289884 -178.731628 -2.095491
      vertex -0.258471 -178.640121 -2.095491
    endloop
  endfacet
  facet normal 0.156381 -0.026094 -0.987352
    outer loop
      vertex -0.146137 -178.729828 -2.024472
      vertex 0.000000 -178.779999 -2.000000
      vertex -0.154509 -178.779999 -2.024472
    endloop
  endfacet
  facet normal -0.614644 -0.667603 -0.420141
    outer loop
      vertex 0.273966 -178.482391 -2.206107
      vertex 0.260089 -178.381897 -2.345491
      vertex 0.375259 -178.487930 -2.345491
    endloop
  endfacet
  facet normal -0.479413 -0.733809 -0.481339
    outer loop
      vertex 0.273966 -178.482391 -2.206107
      vertex 0.162489 -178.409561 -2.206107
      vertex 0.260089 -178.381897 -2.345491
    endloop
  endfacet
  facet normal 0.170519 -0.673135 -0.719592
    outer loop
      vertex -0.024269 -178.487106 -2.095491
      vertex -0.118055 -178.510864 -2.095491
      vertex -0.099301 -178.387863 -2.206107
    endloop
  endfacet
  facet normal 0.059814 -0.722495 -0.688784
    outer loop
      vertex -0.024269 -178.487106 -2.095491
      vertex -0.099301 -178.387863 -2.206107
      vertex 0.033404 -178.376877 -2.206107
    endloop
  endfacet
  facet normal 0.366590 -0.285353 -0.885542
    outer loop
      vertex -0.121929 -178.685104 -2.024472
      vertex -0.258471 -178.640121 -2.095491
      vertex -0.199048 -178.563782 -2.095491
    endloop
  endfacet
  facet normal 0.139430 -0.075470 -0.987352
    outer loop
      vertex -0.121929 -178.685104 -2.024472
      vertex 0.000000 -178.779999 -2.000000
      vertex -0.146137 -178.729828 -2.024472
    endloop
  endfacet
  facet normal 0.394510 -0.213540 -0.893735
    outer loop
      vertex -0.121929 -178.685104 -2.024472
      vertex -0.146137 -178.729828 -2.024472
      vertex -0.258471 -178.640121 -2.095491
    endloop
  endfacet
  facet normal -0.691738 -0.538374 -0.481302
    outer loop
      vertex 0.355755 -178.587479 -2.206107
      vertex 0.273966 -178.482391 -2.206107
      vertex 0.375259 -178.487930 -2.345491
    endloop
  endfacet
  facet normal -0.837848 -0.172740 -0.517853
    outer loop
      vertex 0.355755 -178.587479 -2.206107
      vertex 0.449763 -178.625595 -2.345491
      vertex 0.467508 -178.779999 -2.322698
    endloop
  endfacet
  facet normal -0.798073 -0.431917 -0.420151
    outer loop
      vertex 0.355755 -178.587479 -2.206107
      vertex 0.375259 -178.487930 -2.345491
      vertex 0.449763 -178.625595 -2.345491
    endloop
  endfacet
  facet normal -0.057391 -0.692055 -0.719560
    outer loop
      vertex 0.072146 -178.495102 -2.095491
      vertex -0.024269 -178.487106 -2.095491
      vertex 0.033404 -178.376877 -2.206107
    endloop
  endfacet
  facet normal -0.177943 -0.702777 -0.688797
    outer loop
      vertex 0.072146 -178.495102 -2.095491
      vertex 0.033404 -178.376877 -2.206107
      vertex 0.162489 -178.409561 -2.206107
    endloop
  endfacet
  facet normal 0.303860 -0.330021 -0.893731
    outer loop
      vertex -0.084508 -178.650650 -2.024472
      vertex -0.121929 -178.685104 -2.024472
      vertex -0.199048 -178.563782 -2.095491
    endloop
  endfacet
  facet normal 0.254106 -0.388922 -0.885534
    outer loop
      vertex -0.084508 -178.650650 -2.024472
      vertex -0.199048 -178.563782 -2.095491
      vertex -0.118055 -178.510864 -2.095491
    endloop
  endfacet
  facet normal 0.107391 -0.116637 -0.987352
    outer loop
      vertex -0.084508 -178.650650 -2.024472
      vertex 0.000000 -178.779999 -2.000000
      vertex -0.121929 -178.685104 -2.024472
    endloop
  endfacet
  facet normal -0.881283 -0.096970 -0.462533
    outer loop
      vertex 0.398992 -178.713425 -2.206107
      vertex 0.467508 -178.779999 -2.322698
      vertex 0.411492 -178.779999 -2.215968
    endloop
  endfacet
  facet normal -0.747841 -0.042293 -0.662529
    outer loop
      vertex 0.398992 -178.713425 -2.206107
      vertex 0.411492 -178.779999 -2.215968
      vertex 0.331561 -178.779999 -2.125745
    endloop
  endfacet
  facet normal -0.886924 -0.304479 -0.347359
    outer loop
      vertex 0.398992 -178.713425 -2.206107
      vertex 0.355755 -178.587479 -2.206107
      vertex 0.467508 -178.779999 -2.322698
    endloop
  endfacet
  facet normal -0.648200 -0.222525 -0.728231
    outer loop
      vertex 0.398992 -178.713425 -2.206107
      vertex 0.331561 -178.779999 -2.125745
      vertex 0.355755 -178.587479 -2.206107
    endloop
  endfacet
  facet normal -0.396501 -0.606901 -0.688810
    outer loop
      vertex 0.160744 -178.533966 -2.095491
      vertex 0.162489 -178.409561 -2.206107
      vertex 0.273966 -178.482391 -2.206107
    endloop
  endfacet
  facet normal -0.278949 -0.635913 -0.719585
    outer loop
      vertex 0.160744 -178.533966 -2.095491
      vertex 0.072146 -178.495102 -2.095491
      vertex 0.162489 -178.409561 -2.206107
    endloop
  endfacet
  facet normal 0.114081 -0.450339 -0.885539
    outer loop
      vertex -0.037930 -178.630219 -2.024472
      vertex -0.118055 -178.510864 -2.095491
      vertex -0.024269 -178.487106 -2.095491
    endloop
  endfacet
  facet normal 0.063687 -0.145190 -0.987352
    outer loop
      vertex -0.037930 -178.630219 -2.024472
      vertex 0.000000 -178.779999 -2.000000
      vertex -0.084508 -178.650650 -2.024472
    endloop
  endfacet
  facet normal 0.180205 -0.410821 -0.893729
    outer loop
      vertex -0.037930 -178.630219 -2.024472
      vertex -0.084508 -178.650650 -2.024472
      vertex -0.118055 -178.510864 -2.095491
    endloop
  endfacet
  facet normal -0.572103 -0.445263 -0.688795
    outer loop
      vertex 0.231923 -178.599487 -2.095491
      vertex 0.273966 -178.482391 -2.206107
      vertex 0.355755 -178.587479 -2.206107
    endloop
  endfacet
  facet normal -0.470295 -0.510902 -0.719584
    outer loop
      vertex 0.231923 -178.599487 -2.095491
      vertex 0.160744 -178.533966 -2.095491
      vertex 0.273966 -178.482391 -2.206107
    endloop
  endfacet
  facet normal -0.038393 -0.462962 -0.885546
    outer loop
      vertex 0.012759 -178.626022 -2.024472
      vertex -0.024269 -178.487106 -2.095491
      vertex 0.072146 -178.495102 -2.095491
    endloop
  endfacet
  facet normal 0.037008 -0.447053 -0.893741
    outer loop
      vertex 0.012759 -178.626022 -2.024472
      vertex -0.037930 -178.630219 -2.024472
      vertex -0.024269 -178.487106 -2.095491
    endloop
  endfacet
  facet normal 0.013080 -0.158006 -0.987352
    outer loop
      vertex 0.012759 -178.626022 -2.024472
      vertex 0.000000 -178.779999 -2.000000
      vertex -0.037930 -178.630219 -2.024472
    endloop
  endfacet
  facet normal -0.567108 -0.058021 -0.821597
    outer loop
      vertex 0.277969 -178.684570 -2.095491
      vertex 0.331561 -178.779999 -2.125745
      vertex 0.232362 -178.779999 -2.057272
    endloop
  endfacet
  facet normal -0.610720 -0.330516 -0.719569
    outer loop
      vertex 0.277969 -178.684570 -2.095491
      vertex 0.231923 -178.599487 -2.095491
      vertex 0.355755 -178.587479 -2.206107
    endloop
  endfacet
  facet normal -0.716881 -0.189932 -0.670826
    outer loop
      vertex 0.277969 -178.684570 -2.095491
      vertex 0.355755 -178.587479 -2.206107
      vertex 0.331561 -178.779999 -2.125745
    endloop
  endfacet
  facet normal -0.038908 -0.153698 -0.987352
    outer loop
      vertex 0.062065 -178.638504 -2.024472
      vertex 0.000000 -178.779999 -2.000000
      vertex 0.012759 -178.626022 -2.024472
    endloop
  endfacet
  facet normal -0.186623 -0.425440 -0.885535
    outer loop
      vertex 0.062065 -178.638504 -2.024472
      vertex 0.072146 -178.495102 -2.095491
      vertex 0.160744 -178.533966 -2.095491
    endloop
  endfacet
  facet normal -0.110089 -0.434881 -0.893733
    outer loop
      vertex 0.062065 -178.638504 -2.024472
      vertex 0.012759 -178.626022 -2.024472
      vertex 0.072146 -178.495102 -2.095491
    endloop
  endfacet
  facet normal -0.086709 -0.132730 -0.987352
    outer loop
      vertex 0.104646 -178.666321 -2.024472
      vertex 0.000000 -178.779999 -2.000000
      vertex 0.062065 -178.638504 -2.024472
    endloop
  endfacet
  facet normal -0.314639 -0.341806 -0.885534
    outer loop
      vertex 0.104646 -178.666321 -2.024472
      vertex 0.160744 -178.533966 -2.095491
      vertex 0.231923 -178.599487 -2.095491
    endloop
  endfacet
  facet normal -0.245351 -0.375570 -0.893728
    outer loop
      vertex 0.104646 -178.666321 -2.024472
      vertex 0.062065 -178.638504 -2.024472
      vertex 0.160744 -178.533966 -2.095491
    endloop
  endfacet
  facet normal -0.125124 -0.097368 -0.987352
    outer loop
      vertex 0.135886 -178.706467 -2.024472
      vertex 0.000000 -178.779999 -2.000000
      vertex 0.104646 -178.666321 -2.024472
    endloop
  endfacet
  facet normal -0.119844 -0.107011 -0.987009
    outer loop
      vertex 0.135886 -178.706467 -2.024472
      vertex 0.119658 -178.779999 -2.014529
      vertex 0.000000 -178.779999 -2.000000
    endloop
  endfacet
  facet normal -0.422332 -0.155790 -0.892953
    outer loop
      vertex 0.135886 -178.706467 -2.024472
      vertex 0.277969 -178.684570 -2.095491
      vertex 0.232362 -178.779999 -2.057272
    endloop
  endfacet
  facet normal -0.408562 -0.221110 -0.885544
    outer loop
      vertex 0.135886 -178.706467 -2.024472
      vertex 0.231923 -178.599487 -2.095491
      vertex 0.277969 -178.684570 -2.095491
    endloop
  endfacet
  facet normal -0.354033 -0.275499 -0.893734
    outer loop
      vertex 0.135886 -178.706467 -2.024472
      vertex 0.104646 -178.666321 -2.024472
      vertex 0.231923 -178.599487 -2.095491
    endloop
  endfacet
  facet normal -0.353147 0.090611 -0.931170
    outer loop
      vertex 0.152401 -178.754562 -2.024472
      vertex 0.232362 -178.779999 -2.057272
      vertex 0.119658 -178.779999 -2.014529
    endloop
  endfacet
  facet normal -0.414038 -0.142172 -0.899088
    outer loop
      vertex 0.152401 -178.754562 -2.024472
      vertex 0.135886 -178.706467 -2.024472
      vertex 0.232362 -178.779999 -2.057272
    endloop
  endfacet
  facet normal -0.232366 -0.079790 -0.969350
    outer loop
      vertex 0.152401 -178.754562 -2.024472
      vertex 0.119658 -178.779999 -2.014529
      vertex 0.135886 -178.706467 -2.024472
    endloop
  endfacet
endsolid Mesh
